<?xml version="1.0" encoding="UTF-8"?>
<svg version="1.1" xmlns="http://www.w3.org/2000/svg" width="64" height="64">
<path d="M0 0 C2.125 0.1875 2.125 0.1875 4.125 2.1875 C5.58710269 9.16060513 5.58710269 9.16060513 4 12.6875 C2.125 14.1875 2.125 14.1875 -0.4375 14.5625 C-2.875 14.1875 -2.875 14.1875 -4.875 12.1875 C-7.53300546 12.37887639 -8.5813683 12.85677798 -10.359375 14.859375 C-13.65314934 20.10831647 -13.65314934 20.10831647 -13.875 26.1875 C-8.5663151 25.60575155 -8.5663151 25.60575155 -3.875 23.1875 C-1.3125 22.9375 -1.3125 22.9375 1.125 23.1875 C3.125 25.1875 3.125 25.1875 3.625 28 C3.0607274 31.59723785 2.03172159 32.99898822 -0.8984375 35.14453125 C-5.78989765 37.72559817 -10.84991014 38.6000183 -16.25 37.5 C-18.74371326 36.25314337 -20.82525083 35.07957616 -22.875 33.1875 C-22.875 32.5275 -22.875 31.8675 -22.875 31.1875 C-23.74125 31.97125 -24.6075 32.755 -25.5 33.5625 C-30.26651516 37.87506134 -35.70183832 38.47964419 -41.9375 38.5 C-43.71833984 38.52513672 -43.71833984 38.52513672 -45.53515625 38.55078125 C-50.11456456 38.05267017 -52.66310137 36.39939863 -55.875 33.1875 C-56.125 29.6875 -56.125 29.6875 -55.875 26.1875 C-53.875 24.1875 -53.875 24.1875 -50.75 24.0625 C-49.326875 24.124375 -49.326875 24.124375 -47.875 24.1875 C-47.215 25.5075 -46.555 26.8275 -45.875 28.1875 C-44.616875 28.043125 -43.35875 27.89875 -42.0625 27.75 C-41.00095703 27.62818359 -41.00095703 27.62818359 -39.91796875 27.50390625 C-37.68103607 27.21579265 -37.68103607 27.21579265 -34.875 26.1875 C-34.545 25.5275 -34.215 24.8675 -33.875 24.1875 C-34.67164062 24.16171875 -35.46828125 24.1359375 -36.2890625 24.109375 C-43.29934574 23.7341287 -47.79872095 23.26377905 -52.875 18.1875 C-53.26949853 14.16361502 -53.10777644 11.68214994 -51.375 8 C-47.83555821 4.01812799 -44.12270104 1.73806265 -38.82421875 0.83984375 C-33.80276812 0.61558479 -30.25081973 1.99959013 -25.875 4.1875 C-25.75 7.0625 -25.75 7.0625 -25.875 10.1875 C-27.875 12.1875 -27.875 12.1875 -30.4765625 12.3828125 C-31.47429688 12.35960937 -32.47203125 12.33640625 -33.5 12.3125 C-35.00433594 12.28542969 -35.00433594 12.28542969 -36.5390625 12.2578125 C-37.30992188 12.23460937 -38.08078125 12.21140625 -38.875 12.1875 C-37.36377968 13.69872032 -35.70515558 13.66988785 -33.625 14.0625 C-29.86775617 14.8534987 -27.0437576 15.93870428 -23.875 18.1875 C-23.77703125 17.45789063 -23.6790625 16.72828125 -23.578125 15.9765625 C-22.16486997 10.3706509 -17.83591721 5.79645771 -13.4375 2.1875 C-9.05078677 0.47561191 -4.65912989 0.3038563 0 0 Z " fill="#060708" transform="translate(56.875,14.8125)"/>
<path d="M0 0 C0.845625 -0.00515625 1.69125 -0.0103125 2.5625 -0.015625 C5.13478811 0.26468845 6.7803108 0.9551813 9 2.25 C8.67 3.9 8.34 5.55 8 7.25 C7.08476562 7.27578125 6.16953125 7.3015625 5.2265625 7.328125 C3.44378906 7.41320312 3.44378906 7.41320312 1.625 7.5 C0.44164063 7.54640625 -0.74171875 7.5928125 -1.9609375 7.640625 C-5.11291753 7.90648799 -5.11291753 7.90648799 -6.4140625 10.296875 C-6.60742188 10.94140625 -6.80078125 11.5859375 -7 12.25 C-6.27554687 12.20359375 -5.55109375 12.1571875 -4.8046875 12.109375 C1.56367163 11.87162293 5.14425946 12.0167903 10 16.25 C12 18.25 12 18.25 12.4375 22.0625 C12.33969123 25.43690246 12.04168817 26.1931525 9.9375 29.0625 C3.17108635 34.10131868 -2.64155487 35.23031147 -11 34.25 C-14.11937969 32.87747293 -15.4897715 32.270457 -17 29.25 C-17.039992 27.25039988 -17.04346799 25.24952758 -17 23.25 C-14.6875 23.0625 -14.6875 23.0625 -12 23.25 C-11.54625 23.745 -11.0925 24.24 -10.625 24.75 C-8.9670329 26.58381862 -8.9670329 26.58381862 -5.75 26.5625 C-1.83933882 26.23661157 1.2867992 25.46247373 5 24.25 C4.46504095 22.19572171 4.46504095 22.19572171 3 20.25 C0.02998798 19.47268094 0.02998798 19.47268094 -3.375 19.25 C-9.42694776 18.70354873 -9.42694776 18.70354873 -12.37890625 16.3671875 C-14 14.25 -14 14.25 -14.5625 11.375 C-13.80359466 7.15885923 -11.99877977 5.24877977 -9 2.25 C-5.93569795 0.34446763 -3.58684316 -0.02187099 0 0 Z " fill="#9DA4B1" transform="translate(20,17.75)"/>
<path d="M0 0 C1.38125018 2.76250036 1.19079306 4.94731099 1 8 C0.34 8.66 -0.32 9.32 -1 10 C-2.32 10 -3.64 10 -5 10 C-5.33 9.34 -5.66 8.68 -6 8 C-8.79712143 7.79205082 -8.79712143 7.79205082 -12 9 C-15.46031802 12.7097103 -17.76699664 16.39810191 -18.5 21.4375 C-18.21740981 24.15499045 -18.21740981 24.15499045 -16 26 C-11.86169011 25.69903201 -9.48152976 25.32101984 -6 23 C-3.3125 23.375 -3.3125 23.375 -1 24 C-0.67 25.32 -0.34 26.64 0 28 C-1.10067996 28.81721717 -2.20569731 29.62859451 -3.3125 30.4375 C-3.92738281 30.88996094 -4.54226562 31.34242187 -5.17578125 31.80859375 C-9.09373649 34.36742962 -13.45828459 34.78837324 -18 34 C-21.02391552 32.26092412 -23.41748661 30.16502678 -25 27 C-25.92087028 20.3864771 -25.72672257 15.1997103 -21.9375 9.5625 C-15.24716605 1.26969085 -10.75562361 -0.87523158 0 0 Z " fill="#094C85" transform="translate(59,17)"/>
<path d="M0 0 C1.2684375 -0.00773437 1.2684375 -0.00773437 2.5625 -0.015625 C5.13478811 0.26468845 6.7803108 0.9551813 9 2.25 C8.67 3.9 8.34 5.55 8 7.25 C1.565 7.745 1.565 7.745 -5 8.25 C-5.33 9.9 -5.66 11.55 -6 13.25 C-8.31 13.91 -10.62 14.57 -13 15.25 C-14 14.25 -14 14.25 -14.375 11.5625 C-13.87232011 7.12216096 -12.11877112 5.36877112 -9 2.25 C-5.93569795 0.34446763 -3.58684316 -0.02187099 0 0 Z " fill="#D6D9DE" transform="translate(20,17.75)"/>
<path d="M0 0 C1.38125018 2.76250036 1.19079306 4.94731099 1 8 C0.34 8.66 -0.32 9.32 -1 10 C-2.32 10 -3.64 10 -5 10 C-5.33 9.34 -5.66 8.68 -6 8 C-9.81813447 8.27540704 -9.81813447 8.27540704 -13 10 C-15.65463121 10.45459858 -18.32189138 10.70243238 -21 11 C-19.89165986 6.2895544 -17.23151766 3.88931566 -13.44140625 1.16015625 C-9.09692885 -0.90433941 -4.69147235 -0.46569762 0 0 Z " fill="#41A2C3" transform="translate(59,17)"/>
<path d="M0 0 C0.78112279 2.53864908 0.98065416 4.30953345 0.8125 7 C0.74702496 10.06522652 0.74702496 10.06522652 2.625 12.375 C5.71203846 14.48718421 7.32013854 14.52569449 11 14 C13.71126384 12.57378316 13.71126384 12.57378316 16 11 C16.66 11 17.32 11 18 11 C17.43307299 14.28817667 16.5440846 15.84731303 14 18 C10.30378364 20.46414424 7.28819801 20.80100302 3 20 C-0.01200334 18.37765485 -2.46744636 16.4103893 -3.7109375 13.1171875 C-4.04935629 10.6384985 -3.75295425 8.80767367 -3.1875 6.375 C-3.01605469 5.59898438 -2.84460937 4.82296875 -2.66796875 4.0234375 C-2 2 -2 2 0 0 Z " fill="#002869" transform="translate(38,31)"/>
<path d="M0 0 C0.125 2.875 0.125 2.875 0 6 C-2 8 -2 8 -4.6015625 8.1953125 C-5.59929688 8.17210937 -6.59703125 8.14890625 -7.625 8.125 C-9.12933594 8.09792969 -9.12933594 8.09792969 -10.6640625 8.0703125 C-11.43492188 8.04710937 -12.20578125 8.02390625 -13 8 C-10.69 8.66 -8.38 9.32 -6 10 C-6.33 10.66 -6.66 11.32 -7 12 C-12.445 11.505 -12.445 11.505 -18 11 C-17 7 -17 7 -16 6 C-13.81707226 5.76518307 -11.62796826 5.58636677 -9.4375 5.4375 C-8.23996094 5.35371094 -7.04242187 5.26992188 -5.80859375 5.18359375 C-4.88175781 5.12300781 -3.95492188 5.06242187 -3 5 C-2.67 3.68 -2.34 2.36 -2 1 C-8.03976862 -0.71173166 -13.85963839 -1.10840155 -19.5 1.8125 C-22.14513065 3.93504452 -22.14513065 3.93504452 -24 7 C-24.07905064 9.33199388 -24.08798769 11.66832622 -24 14 C-24.99 14 -25.98 14 -27 14 C-27.31986304 10.00171201 -27.22229924 7.47238587 -25.5 3.8125 C-18.20954476 -4.38926215 -9.4768482 -4.7384241 0 0 Z " fill="#3C3C3D" transform="translate(31,19)"/>
<path d="M0 0 C0.66 0.33 1.32 0.66 2 1 C1.45859375 1.77923828 1.45859375 1.77923828 0.90625 2.57421875 C-2.7050279 7.80268947 -2.7050279 7.80268947 -3 14 C2.3086849 13.41825155 2.3086849 13.41825155 7 11 C9.5625 10.75 9.5625 10.75 12 11 C14 13 14 13 14.5 15.8125 C13.9357274 19.40973785 12.90672159 20.81148822 9.9765625 22.95703125 C4.9408314 25.61422533 -0.11270987 26.45555279 -5.625 25.125 C-6.40875 24.75375 -7.1925 24.3825 -8 24 C-5 23 -5 23 -1.3125 23.1875 C3.30735672 23.24738703 7.37959617 21.92521407 11 19 C11.76732308 16.93494326 11.76732308 16.93494326 12 15 C9.74239143 14.21329449 9.74239143 14.21329449 7 14 C5.31503702 14.96885372 3.64821244 15.96986723 2 17 C-0.90549286 17.41507041 -2.31224952 17.42687961 -4.8125 15.875 C-6.66070183 12.95678658 -6.58034835 11.41760694 -6 8 C-4.22140926 5.13878881 -2.18412344 2.56114475 0 0 Z " fill="#000408" transform="translate(46,27)"/>
<path d="M0 0 C2.125 0.1875 2.125 0.1875 4.125 2.1875 C5.58710269 9.16060513 5.58710269 9.16060513 4 12.6875 C2.125 14.1875 2.125 14.1875 -0.4375 14.5625 C-2.875 14.1875 -2.875 14.1875 -4.875 12.1875 C-7.95847826 12.02068891 -7.95847826 12.02068891 -10.875 12.1875 C-9.6875 10.625 -9.6875 10.625 -7.875 9.1875 C-5.1875 9.5 -5.1875 9.5 -2.875 10.1875 C-2.875 10.8475 -2.875 11.5075 -2.875 12.1875 C-1.225 11.5275 0.425 10.8675 2.125 10.1875 C2.125 7.5475 2.125 4.9075 2.125 2.1875 C-5.95885227 2.21722005 -11.04593373 3.45444188 -16.875 9.1875 C-19.29327455 11.87086564 -19.29327455 11.87086564 -20.875 14.1875 C-20.875 9.82913869 -20.1309307 8.72164402 -17.2890625 5.578125 C-12.17566148 0.54947648 -6.77032895 0.44154319 0 0 Z " fill="#33393C" transform="translate(56.875,14.8125)"/>
<path d="M0 0 C0 0.33 0 0.66 0 1 C-1.65 1 -3.3 1 -5 1 C-5 1.66 -5 2.32 -5 3 C-2.69 3.66 -0.38 4.32 2 5 C2 5.33 2 5.66 2 6 C-10.66970387 6.55353075 -10.66970387 6.55353075 -16 3 C-11.13809463 -1.86190537 -6.30224383 -1.01604802 0 0 Z " fill="#BFC4CD" transform="translate(23,31)"/>
<path d="M0 0 C0.763125 0.20625 1.52625 0.4125 2.3125 0.625 C2.6425 1.945 2.9725 3.265 3.3125 4.625 C1.0625 6.6875 1.0625 6.6875 -1.6875 8.625 C-4 8.375 -4 8.375 -5.6875 7.625 C-4.883125 7.191875 -4.07875 6.75875 -3.25 6.3125 C-0.40903646 4.82025998 -0.40903646 4.82025998 0.3125 1.625 C-0.71875 2.285 -1.75 2.945 -2.8125 3.625 C-6.26084678 5.57558 -8.67600365 6.33815491 -12.6875 5.625 C-15.0625 3.625 -15.0625 3.625 -16.6875 1.625 C-15.6975 1.625 -14.7075 1.625 -13.6875 1.625 C-13.3575 1.955 -13.0275 2.285 -12.6875 2.625 C-8.20522434 2.20997448 -4.0309513 -0.56245832 0 0 Z " fill="#0C4C82" transform="translate(55.6875,40.375)"/>
<path d="M0 0 C2.66666667 1.33333333 5.33333333 2.66666667 8 4 C7.67 4.99 7.34 5.98 7 7 C9.64 7.33 12.28 7.66 15 8 C15 8.33 15 8.66 15 9 C3.29384966 9.55353075 3.29384966 9.55353075 -1 6 C-0.67 4.02 -0.34 2.04 0 0 Z " fill="#767F8E" transform="translate(5,43)"/>
<path d="M0 0 C1.35439668 2.70879335 1.06501451 5.00933268 1 8 C0.34 8 -0.32 8 -1 8 C-1.33 6.35 -1.66 4.7 -2 3 C-9.22032206 2.7006013 -9.22032206 2.7006013 -16 5 C-16 4.34 -16 3.68 -16 3 C-11.37347931 -1.1479151 -5.81806416 -0.27510986 0 0 Z " fill="#4EA1BB" transform="translate(59,17)"/>
<path d="M0 0 C0.66 0.66 1.32 1.32 2 2 C1.54545455 7.45454545 1.54545455 7.45454545 -1 10 C-3.5 10.25 -3.5 10.25 -6 10 C-6.66 9.34 -7.32 8.68 -8 8 C-11.08347826 7.83318891 -11.08347826 7.83318891 -14 8 C-12.8125 6.4375 -12.8125 6.4375 -11 5 C-8.3125 5.3125 -8.3125 5.3125 -6 6 C-6 6.66 -6 7.32 -6 8 C-3.46255685 7.45291273 -3.46255685 7.45291273 -1 6 C-0.10169161 2.94727535 -0.10169161 2.94727535 0 0 Z " fill="#1C262A" transform="translate(60,19)"/>
<path d="M0 0 C0.89589844 -0.01417969 1.79179687 -0.02835938 2.71484375 -0.04296875 C5.0625 0.1875 5.0625 0.1875 7.0625 2.1875 C4.0925 2.1875 1.1225 2.1875 -1.9375 2.1875 C0.3725 2.8475 2.6825 3.5075 5.0625 4.1875 C4.7325 4.8475 4.4025 5.5075 4.0625 6.1875 C0.4325 5.8575 -3.1975 5.5275 -6.9375 5.1875 C-5.57655414 -0.25628343 -5.25083925 0.03766743 0 0 Z " fill="#3D3D3E" transform="translate(19.9375,24.8125)"/>
<path d="M0 0 C0.66 0 1.32 0 2 0 C1.34 4.62 0.68 9.24 0 14 C-0.33 14 -0.66 14 -1 14 C-1 12.02 -1 10.04 -1 8 C-1.5775 7.731875 -2.155 7.46375 -2.75 7.1875 C-5.0325868 5.98280141 -6.9737942 4.59201885 -9 3 C-8.67 2.34 -8.34 1.68 -8 1 C-4.535 2.98 -4.535 2.98 -1 5 C-0.67 3.35 -0.34 1.7 0 0 Z " fill="#081019" transform="translate(34,28)"/>
<path d="M0 0 C2.3125 -0.1875 2.3125 -0.1875 5 0 C6 1 7 2 8 3 C11.10839021 3.7269226 11.10839021 3.7269226 14 4 C14 4.33 14 4.66 14 5 C10.8125 5.75 10.8125 5.75 7 6 C4.0625 4.0625 4.0625 4.0625 2 2 C2.33 3.65 2.66 5.3 3 7 C2.01 6.67 1.02 6.34 0 6 C0 4.02 0 2.04 0 0 Z " fill="#8D96A4" transform="translate(3,41)"/>
<path d="M0 0 C0.78375 0.04125 1.5675 0.0825 2.375 0.125 C1.80155063 2.99224686 1.5135485 3.9864515 -0.625 6.125 C-2.61321313 6.52264263 -4.61444339 6.86275349 -6.625 7.125 C-4.07142857 0.19387755 -4.07142857 0.19387755 0 0 Z " fill="#3B89B2" transform="translate(44.625,20.875)"/>
<path d="M0 0 C2.31 0 4.62 0 7 0 C6.47599609 0.74443359 6.47599609 0.74443359 5.94140625 1.50390625 C2.85889249 6.10584605 1.34610059 9.46239061 1 15 C0.34 14.67 -0.32 14.34 -1 14 C-1.5497272 8.36529617 0.04952165 5.61012242 3 1 C2.01 0.67 1.02 0.34 0 0 Z " fill="#12598E" transform="translate(39,27)"/>
<path d="M0 0 C0.66 0 1.32 0 2 0 C2.21398438 0.79792969 2.42796875 1.59585938 2.6484375 2.41796875 C3.75581595 5.24489984 3.75581595 5.24489984 6.6015625 5.92578125 C7.59929688 6.05339844 8.59703125 6.18101563 9.625 6.3125 C10.62789062 6.45300781 11.63078125 6.59351563 12.6640625 6.73828125 C13.82035156 6.86783203 13.82035156 6.86783203 15 7 C15 7.66 15 8.32 15 9 C7.23214286 9.66964286 7.23214286 9.66964286 3.5625 6.75 C0.23552502 3.17958783 0.23552502 3.17958783 0 0 Z " fill="#03316F" transform="translate(34,42)"/>
<path d="M0 0 C3.0625 0.375 3.0625 0.375 4.9375 2.375 C5.494375 3.365 5.494375 3.365 6.0625 4.375 C5.7325 5.035 5.4025 5.695 5.0625 6.375 C4.670625 5.900625 4.27875 5.42625 3.875 4.9375 C1.65441626 3.02320367 -0.07125709 2.76233012 -2.9375 2.375 C-2.9375 4.355 -2.9375 6.335 -2.9375 8.375 C-3.5975 8.375 -4.2575 8.375 -4.9375 8.375 C-5.0625 5.5 -5.0625 5.5 -4.9375 2.375 C-2.9375 0.375 -2.9375 0.375 0 0 Z " fill="#111214" transform="translate(5.9375,38.625)"/>
<path d="M0 0 C2.55687669 0.34552388 4.57501375 0.75087013 6.8125 2.0625 C8.7634059 5.24555699 8.1807718 8.32430673 8 12 C7.34 12 6.68 12 6 12 C5.9071875 10.4221875 5.9071875 10.4221875 5.8125 8.8125 C4.86591384 4.3708265 3.40843742 2.88406243 0 0 Z " fill="#AFB4BC" transform="translate(24,32)"/>
<path d="M0 0 C1.485 0.99 1.485 0.99 3 2 C5.33199388 2.07905064 7.66832622 2.08798769 10 2 C10.33 2.66 10.66 3.32 11 4 C8.15916359 5.42041821 6.14522722 5.31452272 3 5 C0.625 3 0.625 3 -1 1 C-0.67 0.67 -0.34 0.34 0 0 Z " fill="#073E79" transform="translate(40,41)"/>
<path d="M0 0 C0.66 0.33 1.32 0.66 2 1 C2 2.98 2 4.96 2 7 C0.02 7.99 0.02 7.99 -2 9 C-2.66 8.34 -3.32 7.68 -4 7 C-3.01 6.67 -2.02 6.34 -1 6 C-0.26676204 3.98491642 -0.26676204 3.98491642 0 2 C-0.66 1.67 -1.32 1.34 -2 1 C-1.34 0.67 -0.68 0.34 0 0 Z " fill="#4C4C4C" transform="translate(29,18)"/>
<path d="M0 0 C0.66 0 1.32 0 2 0 C2 0.99 2 1.98 2 3 C5.63 3.33 9.26 3.66 13 4 C13 4.33 13 4.66 13 5 C7.158256 5.35050464 3.1468192 5.16727335 -2 2 C-1.34 1.34 -0.68 0.68 0 0 Z " fill="#7E838A" transform="translate(9,32)"/>
<path d="M0 0 C1.21236328 0.02707031 1.21236328 0.02707031 2.44921875 0.0546875 C3.37154297 0.08949219 3.37154297 0.08949219 4.3125 0.125 C4.3125 0.455 4.3125 0.785 4.3125 1.125 C3.260625 1.24875 2.20875 1.3725 1.125 1.5 C-2.14708771 2.03640782 -4.69286076 2.76380035 -7.6875 4.125 C-7.6875 3.465 -7.6875 2.805 -7.6875 2.125 C-4.48369983 -0.01086678 -3.66810033 -0.10632175 0 0 Z " fill="#52ADCF" transform="translate(50.6875,17.875)"/>
<path d="M0 0 C0.66 1.32 1.32 2.64 2 4 C0.25 5.5625 0.25 5.5625 -2 7 C-4.25 6.6875 -4.25 6.6875 -6 6 C-5.195625 5.566875 -4.39125 5.13375 -3.5625 4.6875 C-0.72153646 3.19525998 -0.72153646 3.19525998 0 0 Z " fill="#063F7B" transform="translate(56,42)"/>
<path d="M0 0 C3.3 0.66 6.6 1.32 10 2 C9.67 2.66 9.34 3.32 9 4 C6.03 3.67 3.06 3.34 0 3 C0 2.01 0 1.02 0 0 Z " fill="#303030" transform="translate(15,27)"/>
</svg>
